<svg xmlns="http://www.w3.org/2000/svg" xmlns:xlink="http://www.w3.org/1999/xlink" width="2666" zoomAndPan="magnify" viewBox="0 0 1999.5 499.49999" height="666" preserveAspectRatio="xMidYMid meet" version="1.2"><defs><clipPath id="a5ccf2e1f5"><path d="M 0.75 0 L 1998.25 0 L 1998.25 499 L 0.75 499 Z M 0.75 0 "/></clipPath><clipPath id="3ed30d4a19"><path d="M 763.628906 84.332031 L 852.507812 84.332031 L 852.507812 106.546875 L 763.628906 106.546875 Z M 674.746094 128.777344 L 696.964844 128.777344 L 696.964844 150.992188 L 674.746094 150.992188 Z M 719.191406 128.777344 L 808.074219 128.777344 L 808.074219 150.992188 L 719.191406 150.992188 Z M 830.289062 106.546875 L 852.507812 106.546875 L 852.507812 173.210938 L 830.289062 173.210938 Z M 785.855469 150.992188 L 808.074219 150.992188 L 808.074219 217.65625 L 785.855469 217.65625 Z M 674.746094 173.210938 L 696.964844 173.210938 L 696.964844 239.875 L 674.746094 239.875 Z M 674.746094 239.875 L 763.628906 239.875 L 763.628906 262.09375 L 674.746094 262.09375 Z M 674.746094 239.875 "/></clipPath><clipPath id="e8a948a81d"><path d="M 785.765625 239.984375 L 807.953125 239.984375 L 807.953125 261.792969 L 785.765625 261.792969 Z M 785.765625 278.726562 L 807.953125 278.726562 L 807.953125 379.164062 L 785.765625 379.164062 Z M 785.765625 278.726562 "/></clipPath><clipPath id="911bf89bdb"><path d="M 816 278.566406 L 919.789062 278.566406 L 919.789062 379.179688 L 816 379.179688 Z M 816 278.566406 "/></clipPath><clipPath id="3b764cc168"><path d="M 819.242188 278.726562 L 846.105469 278.726562 L 867.125 309.675781 L 889.121094 278.726562 L 914.816406 278.726562 L 880.75 325.25 L 919.09375 379.164062 L 892.4375 379.164062 L 866.945312 342.183594 L 842.21875 379.164062 L 816.136719 379.164062 L 854.097656 326.40625 Z M 819.242188 278.726562 "/></clipPath><clipPath id="a9a8a4aacd"><path d="M 927.484375 239.984375 L 949.671875 239.984375 L 949.671875 261.792969 L 927.484375 261.792969 Z M 927.484375 278.726562 L 949.671875 278.726562 L 949.671875 379.164062 L 927.484375 379.164062 Z M 927.484375 278.726562 "/></clipPath><clipPath id="a7fe11b6d6"><path d="M 964.246094 276.546875 L 1052.667969 276.546875 L 1052.667969 382.113281 L 964.246094 382.113281 Z M 964.246094 276.546875 "/></clipPath><clipPath id="3361c15ede"><path d="M 1038.921875 372.054688 C 1031.460938 378.738281 1021.828125 382.082031 1010.019531 382.082031 C 995.484375 382.082031 984.226562 377.117188 976.253906 367.199219 C 968.28125 357.277344 964.277344 344.769531 964.277344 329.714844 C 964.277344 313.503906 968.523438 300.59375 977.023438 290.984375 C 985.527344 281.375 996.84375 276.578125 1010.992188 276.578125 C 1022.539062 276.578125 1031.878906 279.535156 1039.023438 285.441406 C 1046.164062 291.34375 1050.371094 299.546875 1051.667969 310.066406 L 1043.6875 310.066406 C 1042.648438 301.894531 1039.210938 295.371094 1033.367188 290.503906 C 1027.523438 285.640625 1020.132812 283.203125 1011.179688 283.203125 C 999.371094 283.203125 989.929688 287.386719 982.859375 295.761719 C 975.785156 304.132812 972.257812 315.320312 972.257812 329.335938 C 972.257812 343.222656 975.695312 354.382812 982.578125 362.8125 C 989.460938 371.246094 998.542969 375.46875 1009.832031 375.46875 C 1019.433594 375.46875 1027.3125 372.671875 1033.476562 367.097656 C 1039.640625 361.523438 1043.367188 353.863281 1044.667969 344.132812 L 1052.457031 344.132812 C 1050.898438 356.070312 1046.394531 365.378906 1038.933594 372.0625 "/></clipPath><clipPath id="e7e6de97d6"><path d="M 1059.4375 276.546875 L 1151.917969 276.546875 L 1151.917969 382.113281 L 1059.4375 382.113281 Z M 1059.4375 276.546875 "/></clipPath><clipPath id="1da766589c"><path d="M 1078.054688 296.050781 C 1070.980469 304.480469 1067.445312 315.589844 1067.445312 329.335938 C 1067.445312 343.351562 1070.921875 354.5 1077.863281 362.8125 C 1084.804688 371.125 1094.175781 375.269531 1105.984375 375.269531 C 1117.402344 375.269531 1126.554688 371.15625 1133.429688 362.914062 C 1140.300781 354.671875 1143.738281 343.683594 1143.738281 329.917969 C 1143.738281 315.78125 1140.300781 304.480469 1133.429688 296.050781 C 1126.554688 287.617188 1117.332031 283.402344 1105.785156 283.402344 C 1094.367188 283.402344 1085.117188 287.628906 1078.042969 296.050781 M 1139.363281 291.085938 C 1147.734375 300.753906 1151.917969 313.703125 1151.917969 329.917969 C 1151.917969 345.878906 1147.734375 358.566406 1139.363281 367.976562 C 1130.992188 377.386719 1119.800781 382.082031 1105.785156 382.082031 C 1091.640625 382.082031 1080.382812 377.308594 1072.019531 367.777344 C 1063.65625 358.246094 1059.460938 345.429688 1059.460938 329.335938 C 1059.460938 313.503906 1063.707031 300.753906 1072.210938 291.085938 C 1080.710938 281.414062 1091.980469 276.578125 1105.996094 276.578125 C 1119.882812 276.578125 1131.011719 281.414062 1139.371094 291.085938 "/></clipPath><clipPath id="24dae4b082"><path d="M 1163.453125 278.160156 L 1210.402344 278.160156 L 1210.402344 379.59375 L 1163.453125 379.59375 Z M 1163.453125 278.160156 "/></clipPath><clipPath id="16717af813"><path d="M 1210.335938 286.710938 L 1207.417969 286.710938 C 1195.871094 286.710938 1186.71875 291.1875 1179.976562 300.136719 C 1176.339844 304.941406 1174.042969 310.097656 1173.0625 315.613281 C 1172.082031 321.125 1171.605469 327.96875 1171.605469 336.140625 L 1171.605469 379.160156 L 1163.8125 379.160156 L 1163.8125 279.507812 L 1171.40625 279.507812 L 1171.40625 305.78125 C 1175.039062 296.179688 1179.90625 289.269531 1186 285.050781 C 1192.09375 280.835938 1200.214844 278.730469 1210.335938 278.730469 Z M 1210.335938 286.710938 "/></clipPath><clipPath id="1cb50294c2"><path d="M 1214 276.421875 L 1303.71875 276.421875 L 1303.71875 415.527344 L 1214 415.527344 Z M 1214 276.421875 "/></clipPath><clipPath id="d27db26556"><path d="M 1231.554688 295.761719 C 1225.058594 303.992188 1221.824219 315.453125 1221.824219 330.117188 C 1221.824219 338.289062 1223.023438 345.710938 1225.429688 352.394531 C 1227.835938 359.078125 1231.914062 364.691406 1237.6875 369.238281 C 1243.460938 373.785156 1250.503906 376.042969 1258.808594 376.042969 C 1269.835938 376.042969 1278.695312 371.824219 1285.378906 363.394531 C 1292.0625 354.960938 1295.398438 343.792969 1295.398438 329.90625 C 1295.398438 315.632812 1292.09375 304.3125 1285.46875 295.941406 C 1278.847656 287.570312 1269.894531 283.394531 1258.605469 283.394531 C 1247.058594 283.394531 1238.039062 287.519531 1231.554688 295.761719 M 1221.824219 303.246094 C 1228.308594 285.601562 1240.703125 276.78125 1258.996094 276.78125 C 1272.492188 276.78125 1283.300781 281.617188 1291.402344 291.277344 C 1299.507812 300.9375 1303.570312 313.832031 1303.570312 329.917969 C 1303.570312 345.75 1299.515625 358.5 1291.402344 368.167969 C 1283.292969 377.839844 1272.554688 382.675781 1259.195312 382.675781 C 1249.984375 382.675781 1242.132812 380.398438 1235.640625 375.863281 C 1229.148438 371.324219 1224.679688 364.882812 1222.214844 356.582031 L 1222.214844 415.171875 L 1214.421875 415.171875 L 1214.421875 279.507812 L 1221.8125 279.507812 Z M 1221.824219 303.246094 "/></clipPath><clipPath id="b7c40c9c57"><path d="M 1309 363.363281 L 1325 363.363281 L 1325 379.59375 L 1309 379.59375 Z M 1309 363.363281 "/></clipPath><clipPath id="465c4cbcb0"><path d="M 1324.75 371.527344 C 1324.75 375.742188 1321.332031 379.160156 1317.117188 379.160156 C 1312.902344 379.160156 1309.484375 375.742188 1309.484375 371.527344 C 1309.484375 367.308594 1312.902344 363.894531 1317.117188 363.894531 C 1321.332031 363.894531 1324.75 367.308594 1324.75 371.527344 "/></clipPath></defs><g id="cc5fcf5169"><g clip-rule="nonzero" clip-path="url(#a5ccf2e1f5)"><path style=" stroke:none;fill-rule:nonzero;fill:#ffffff;fill-opacity:1;" d="M 0.75 0 L 1998.25 0 L 1998.25 499 L 0.75 499 Z M 0.75 0 "/><path style=" stroke:none;fill-rule:nonzero;fill:#0b2220;fill-opacity:1;" d="M 0.75 0 L 1998.25 0 L 1998.25 499 L 0.75 499 Z M 0.75 0 "/></g><g clip-rule="nonzero" clip-path="url(#3ed30d4a19)"><path style=" stroke:none;fill-rule:nonzero;fill:#d38a28;fill-opacity:1;" d="M 669.75 79.335938 L 954.652344 79.335938 L 954.652344 384.160156 L 669.75 384.160156 Z M 669.75 79.335938 "/></g><g clip-rule="nonzero" clip-path="url(#e8a948a81d)"><path style=" stroke:none;fill-rule:nonzero;fill:#d38a28;fill-opacity:1;" d="M 669.75 79.335938 L 954.652344 79.335938 L 954.652344 384.160156 L 669.75 384.160156 Z M 669.75 79.335938 "/></g><g clip-rule="nonzero" clip-path="url(#911bf89bdb)"><g clip-rule="nonzero" clip-path="url(#3b764cc168)"><path style=" stroke:none;fill-rule:nonzero;fill:#d38a28;fill-opacity:1;" d="M 669.75 79.335938 L 954.652344 79.335938 L 954.652344 384.160156 L 669.75 384.160156 Z M 669.75 79.335938 "/></g></g><g clip-rule="nonzero" clip-path="url(#a9a8a4aacd)"><path style=" stroke:none;fill-rule:nonzero;fill:#d38a28;fill-opacity:1;" d="M 669.75 79.335938 L 954.652344 79.335938 L 954.652344 384.160156 L 669.75 384.160156 Z M 669.75 79.335938 "/></g><g clip-rule="nonzero" clip-path="url(#a7fe11b6d6)"><g clip-rule="nonzero" clip-path="url(#3361c15ede)"><path style=" stroke:none;fill-rule:nonzero;fill:#d38a28;fill-opacity:1;" d="M 959.28125 271.585938 L 1156.882812 271.585938 L 1156.882812 387.078125 L 959.28125 387.078125 Z M 959.28125 271.585938 "/></g></g><g clip-rule="nonzero" clip-path="url(#e7e6de97d6)"><g clip-rule="nonzero" clip-path="url(#1da766589c)"><path style=" stroke:none;fill-rule:nonzero;fill:#d38a28;fill-opacity:1;" d="M 959.28125 271.585938 L 1156.882812 271.585938 L 1156.882812 387.078125 L 959.28125 387.078125 Z M 959.28125 271.585938 "/></g></g><g clip-rule="nonzero" clip-path="url(#24dae4b082)"><g clip-rule="nonzero" clip-path="url(#16717af813)"><path style=" stroke:none;fill-rule:nonzero;fill:#d38a28;fill-opacity:1;" d="M 1158.816406 271.785156 L 1329.800781 271.785156 L 1329.800781 420.164062 L 1158.816406 420.164062 Z M 1158.816406 271.785156 "/></g></g><g clip-rule="nonzero" clip-path="url(#1cb50294c2)"><g clip-rule="nonzero" clip-path="url(#d27db26556)"><path style=" stroke:none;fill-rule:nonzero;fill:#d38a28;fill-opacity:1;" d="M 1158.816406 271.785156 L 1329.800781 271.785156 L 1329.800781 420.164062 L 1158.816406 420.164062 Z M 1158.816406 271.785156 "/></g></g><g clip-rule="nonzero" clip-path="url(#b7c40c9c57)"><g clip-rule="nonzero" clip-path="url(#465c4cbcb0)"><path style=" stroke:none;fill-rule:nonzero;fill:#d38a28;fill-opacity:1;" d="M 1158.816406 271.785156 L 1329.800781 271.785156 L 1329.800781 420.164062 L 1158.816406 420.164062 Z M 1158.816406 271.785156 "/></g></g></g></svg>